<svg width="20" height="15" viewBox="0 0 20 15" fill="none" xmlns="http://www.w3.org/2000/svg">
<g clip-path="url(#clip0_2093_69)">
<path d="M4.54547 14.9262V7.23886L2.14898 5.0578L0 3.84746V13.5696C0 14.3202 0.611328 14.9262 1.36367 14.9262H4.54547Z" fill="#4285F4"/>
<path d="M15.4546 14.9262H18.6364C19.391 14.9262 20.0001 14.3179 20.0001 13.5696V3.84754L17.566 5.23383L15.4546 7.23886V14.9262Z" fill="#34A853"/>
<path d="M4.54533 7.23886L4.21924 4.23521L4.54533 1.36041L9.99986 5.43015L15.4544 1.36041L15.8192 4.08L15.4544 7.23886L9.99986 11.3086L4.54533 7.23886Z" fill="#EA4335"/>
<path d="M15.4546 1.36041V7.23886L20.0001 3.84746V2.03868C20.0001 0.361087 18.0751 -0.59526 16.7274 0.410828L15.4546 1.36041Z" fill="#FBBC04"/>
<path d="M0 3.84747L2.09055 5.40732L4.54547 7.23887V1.36043L3.27266 0.410841C1.92266 -0.595325 0 0.3611 0 2.03861V3.84747Z" fill="#C5221F"/>
</g>
<defs>
<clipPath id="clip0_2093_69">
<rect width="20" height="15" fill="white"/>
</clipPath>
</defs>
</svg>
