<svg width="43" height="44" viewBox="0 0 43 44" fill="none" xmlns="http://www.w3.org/2000/svg">
<path d="M24.8899 2.8307C23.6399 0.410703 20.5599 -0.589287 18.0099 0.590713C15.4599 1.78071 14.4099 4.71072 15.6599 7.13072L32.5799 39.9307C33.4699 41.6607 35.2999 42.6707 37.1999 42.6707C37.9599 42.6707 38.7299 42.5107 39.4599 42.1707C42.0099 40.9807 43.0599 38.0507 41.8099 35.6307L24.8899 2.8307Z" fill="#00A389"/>
<path d="M18.4762 43.0836C19.3529 43.1417 20.2569 42.9865 21.1029 42.5906C23.6629 41.3923 24.717 38.4419 23.4621 36.0051L16.786 22.8544C15.8925 21.1124 14.0554 20.0954 12.1479 20.0954C11.3849 20.0954 10.6119 20.2565 9.87906 20.5989C8.02608 21.4662 6.96207 23.2515 6.99157 25.0955L6.99106 38.0954C6.99106 40.8569 9.22964 43.0954 11.9911 43.0954H18.1252C18.2435 43.0954 18.3605 43.0915 18.4762 43.0836Z" fill="#9DA5B0"/>
<path d="M5.78993 43.0836C4.91326 43.1417 4.0092 42.9865 3.16324 42.5906C0.603244 41.3923 -0.450863 38.4419 0.804035 36.0051L7.48009 22.8544C8.37358 21.1124 10.2107 20.0954 12.1182 20.0954C12.8812 20.0954 13.6542 20.2565 14.3871 20.5989C16.24 21.4662 17.304 23.2515 17.2745 25.0955L17.2751 38.0954C17.2751 40.8569 15.0365 43.0954 12.2751 43.0954H6.14092C6.02259 43.0954 5.90557 43.0915 5.78993 43.0836Z" fill="#9DA5B0"/>
</svg>
